<svg width="200" height="40" viewBox="0 0 200 40" fill="none" xmlns="http://www.w3.org/2000/svg">
<path d="M1.5 34.3659C1.5 34.3104 1.5 34.2548 1.51918 34.179C1.63244 34.1131 1.72931 34.0722 1.82019 34.0209C3.57182 33.0323 5.32313 32.0432 7.07369 31.0528C8.58743 30.1963 10.1002 29.3381 11.6314 28.4827C12.2873 28.8444 12.9269 29.201 13.5625 29.5643C14.5055 30.1032 15.4459 30.6467 16.3871 31.1885C17.2318 31.6747 18.0748 32.1637 18.9213 32.6468C19.4742 32.9625 20.0351 33.2646 20.5863 33.5832C20.8985 33.7637 21.1982 33.9652 21.5024 34.1782C21.5014 34.269 21.5016 34.3388 21.4834 34.413C21.2829 34.5149 21.098 34.6077 20.9193 34.7108C19.8142 35.3477 18.7125 35.9903 17.6059 36.6244C16.8206 37.0743 16.0264 37.5089 15.2415 37.9593C14.1812 38.5677 13.1252 39.1836 12.0699 39.8005C11.9921 39.846 11.935 39.9261 11.8683 39.9901C11.6565 39.9901 11.4446 39.9901 11.2145 39.9719C11.032 39.8495 10.871 39.7397 10.7028 39.642C9.69578 39.0569 8.68675 38.4752 7.67916 37.8911C6.94838 37.4675 6.21775 37.0436 5.48888 36.6167C4.39837 35.9781 3.31171 35.333 2.21804 34.6997C1.99073 34.5681 1.73996 34.4761 1.5 34.3659Z" fill="#002699"/>
<path d="M11.4436 17.0835C11.4447 13.3877 11.4483 9.69191 11.4414 5.99615C11.441 5.76536 11.4893 5.61866 11.7035 5.50173C12.5127 5.05989 13.315 4.60567 14.1152 4.14788C14.6621 3.83497 15.1982 3.50356 15.7443 3.18917C16.5522 2.72407 17.3656 2.2685 18.1748 1.80563C19.1656 1.23889 20.1544 0.668942 21.1435 0.0991968C21.1643 0.0872112 21.1766 0.0608858 21.1885 0.0227584C21.2915 0.00426672 21.3989 0.00426672 21.5251 0.028369C21.5419 0.173927 21.5384 0.295382 21.5384 0.416837C21.5381 3.86242 21.5391 7.308 21.5366 10.7536C21.5364 11.039 21.5132 11.3244 21.4813 11.6128C21.414 11.6331 21.3622 11.6439 21.3187 11.669C20.7653 11.9885 20.2144 12.3121 19.6603 12.6305C18.8592 13.0909 18.0551 13.5463 17.2539 14.0067C16.5335 14.4207 15.8168 14.8409 15.0959 15.2541C14.2727 15.7259 13.4485 16.1961 12.6209 16.6604C12.2892 16.8464 11.9474 17.0147 11.596 17.1824C11.5356 17.1436 11.4896 17.1135 11.4436 17.0835Z" fill="#032B91"/>
<path d="M21.5025 34.4139C21.5023 34.3441 21.5021 34.2743 21.5199 34.1776C22.2294 33.7453 22.9187 33.3362 23.6128 32.9353C24.6145 32.3568 25.6189 31.7828 26.6238 31.2097C27.224 30.8674 27.829 30.5334 28.4289 30.1906C29.152 29.7773 29.8705 29.3562 30.5938 28.9433C30.8731 28.784 31.1602 28.6381 31.4514 28.5023C31.5441 28.5782 31.6249 28.6448 31.7145 28.6965C34.8819 30.5249 38.0503 32.3515 41.2172 34.1808C41.3049 34.2315 41.3772 34.3083 41.4478 34.3891C41.3847 34.4468 41.3345 34.4952 41.2757 34.5287C40.5649 34.9341 39.8533 35.3381 39.1409 35.7408C38.3703 36.1765 37.5989 36.6109 36.8273 37.0451C36.0634 37.4749 35.2983 37.9028 34.5347 38.3332C33.6437 38.8354 32.753 39.3384 31.865 39.8458C31.8178 39.8728 31.7967 39.9445 31.7634 39.9953C31.6213 39.9953 31.4791 39.9953 31.3313 39.9827C31.0213 39.7848 30.7194 39.5954 30.4121 39.4152C29.9412 39.1391 29.4688 38.8652 28.993 38.5975C28.1543 38.1258 27.3118 37.6607 26.4723 37.1905C26.0276 36.9415 25.5867 36.6861 25.1424 36.4364C24.4959 36.0731 23.8485 35.7111 23.2003 35.3508C22.6353 35.0369 22.0685 34.7261 21.5025 34.4139Z" fill="#1488DB"/>
<path d="M21.5015 11.6056C21.514 11.3202 21.5371 11.0347 21.5373 10.7493C21.5399 7.30373 21.5389 3.85815 21.5392 0.412571C21.5392 0.291115 21.5427 0.16966 21.5489 0.0241026C21.6435 2.60734e-07 21.7337 2.60381e-07 21.8465 0C21.9601 0.0873476 22.038 0.197128 22.1444 0.258289C22.7043 0.580007 23.2743 0.884477 23.8353 1.2043C24.6789 1.68516 25.5178 2.17395 26.3589 2.65907C27.295 3.19902 28.2292 3.7422 29.1681 4.27723C29.884 4.68516 30.6057 5.08319 31.3256 5.48423C31.4878 5.5746 31.5599 5.68678 31.5594 5.89135C31.5511 9.60433 31.5538 13.3173 31.5489 17.0687C31.5104 17.1506 31.4772 17.1941 31.4268 17.2312C30.894 16.9402 30.3758 16.66 29.8635 16.3698C28.9979 15.8795 28.1359 15.3829 27.2726 14.8888C26.2218 14.2874 25.1697 13.6884 24.121 13.0836C23.3689 12.6498 22.6225 12.2065 21.871 11.7717C21.7548 11.7045 21.625 11.6604 21.5015 11.6056Z" fill="#1488DB"/>
<path d="M11.4246 17.0779C11.4895 17.1068 11.5356 17.1369 11.5939 17.1998C11.6058 20.7316 11.6053 24.2306 11.6055 27.7295C11.6055 27.9805 11.6106 28.2315 11.6133 28.4825C10.1001 29.3399 8.58743 30.1982 7.07369 31.0546C5.32313 32.045 3.57181 33.0342 1.82019 34.0228C1.72931 34.074 1.63244 34.1149 1.51918 34.1601C1.5 30.3568 1.5 26.5542 1.5 22.7271C1.7215 22.594 1.94949 22.4964 2.16335 22.3746C3.01405 21.8898 3.86062 21.3979 4.70821 20.9079C5.8531 20.2459 6.99681 19.5819 8.14238 18.921C9.01865 18.4155 9.89619 17.9122 10.7751 17.4112C10.9813 17.2937 11.1953 17.1895 11.4246 17.0779Z" fill="#1488DB"/>
<path d="M31.4438 17.2423C31.477 17.1988 31.5102 17.1553 31.5518 17.0975C31.7763 17.1918 31.9985 17.2902 32.2076 17.4109C33.1923 17.979 34.1743 18.5516 35.1554 19.1258C35.7815 19.4923 36.4024 19.8677 37.029 20.2332C38.0445 20.8254 39.0615 21.4152 40.0806 22.0013C40.5378 22.2643 41.0017 22.5158 41.4814 22.7672C41.5002 26.6167 41.5002 30.4714 41.4893 34.3509C41.4785 34.3756 41.4567 34.3768 41.4567 34.3768C41.3773 34.3121 41.305 34.2353 41.2172 34.1846C38.0504 32.3553 34.8819 30.5287 31.7145 28.7003C31.6249 28.6486 31.5441 28.5819 31.4529 28.4817C31.4457 24.7082 31.4448 20.9752 31.4438 17.2423Z" fill="#032B91"/>
<path d="M20.6532 22.9407C20.4423 23.513 20.1127 23.9634 19.5424 24.1866C19.3194 24.2738 19.0763 24.3575 18.8414 24.3604C17.5097 24.3768 16.1776 24.3684 14.8457 24.3673C14.795 24.3673 14.7444 24.3566 14.6763 24.3489C14.6763 21.9497 14.6763 19.5613 14.6763 17.1451C14.773 17.1397 14.8658 17.13 14.9585 17.1299C16.1152 17.1289 17.2725 17.1076 18.4284 17.1359C19.3906 17.1595 20.1427 17.6087 20.3624 18.6019C20.5107 19.2724 20.3388 19.8983 19.7839 20.3731C19.745 20.4064 19.7122 20.4468 19.6588 20.5025C19.7905 20.5842 19.9195 20.6485 20.0301 20.7354C20.6968 21.2592 20.8705 21.9447 20.689 22.7429C20.6758 22.8013 20.6666 22.8607 20.6532 22.9407ZM16.382 21.2962C16.3172 21.3344 16.197 21.3711 16.196 21.4108C16.1833 21.9184 16.1876 22.4265 16.1876 22.958C16.9569 22.958 17.6909 22.971 18.4241 22.9511C18.6907 22.9439 18.9242 22.7964 19.0453 22.549C19.3404 21.9461 18.9561 21.3991 18.2898 21.3537C17.6721 21.3116 17.0513 21.3134 16.382 21.2962ZM18.2932 18.5411C18.1127 18.5219 17.9324 18.4887 17.7516 18.486C17.2386 18.4785 16.7253 18.4834 16.2018 18.4834C16.2018 18.9675 16.2018 19.4126 16.2018 19.8855C16.8998 19.8855 17.5804 19.8971 18.2599 19.8757C18.3965 19.8714 18.5494 19.7638 18.6598 19.6653C19.0753 19.2949 18.9111 18.7535 18.2932 18.5411Z" fill="#032B91"/>
<path d="M26.2495 19.8093C26.0659 19.9332 26.0833 20.064 26.1843 20.2143C26.6507 20.9083 27.1162 21.6029 27.5774 22.3002C27.9723 22.8973 28.3627 23.4974 28.7494 24.0996C28.7922 24.1662 28.7979 24.256 28.8336 24.3791C28.2452 24.3791 27.6954 24.3684 27.1463 24.3844C26.9263 24.3909 26.8165 24.3227 26.7042 24.128C26.1309 23.1346 25.5336 22.1549 24.96 21.1959C24.5952 21.5393 24.2229 21.8818 23.8637 22.2371C23.8145 22.2858 23.8181 22.3985 23.8177 22.4817C23.8141 23.0974 23.8157 23.7131 23.8157 24.3539C23.3131 24.3539 22.8274 24.3539 22.3154 24.3539C22.3154 21.9661 22.3154 19.57 22.3154 17.1567C22.8093 17.1567 23.2948 17.1567 23.8087 17.1567C23.8087 18.1484 23.8087 19.1247 23.8087 20.1796C24.1016 19.8732 24.345 19.6243 24.582 19.3695C25.1924 18.7131 25.814 18.066 26.4007 17.3895C26.5942 17.1664 26.7951 17.1302 27.0568 17.1361C27.5812 17.148 28.1062 17.1397 28.705 17.1397C28.6314 17.2812 28.6028 17.388 28.5353 17.4579C27.9131 18.103 27.2838 18.7415 26.6574 19.3826C26.5242 19.5189 26.3942 19.6582 26.2495 19.8093Z" fill="#032B91"/>
<path d="M27.0232 25.9434C27.1265 26.3566 27.2281 26.7481 27.3297 27.1397C27.3458 27.1395 27.362 27.1392 27.3782 27.139C27.506 26.6583 27.6293 26.1763 27.7665 25.6982C27.7865 25.6284 27.8692 25.5297 27.9286 25.5256C28.1968 25.5069 28.4671 25.5174 28.7492 25.5174C28.7492 26.5096 28.7492 27.478 28.7492 28.4661C28.5559 28.4661 28.3604 28.4661 28.1398 28.4661C28.1398 27.9193 28.1398 27.3691 28.1398 26.8189C28.128 26.818 28.1162 26.8171 28.1044 26.8163C27.9739 27.3041 27.8282 27.7887 27.7212 28.2815C27.684 28.4533 27.6203 28.4985 27.4656 28.4869C27.3785 28.4803 27.2893 28.477 27.203 28.4876C27.0583 28.5055 27.0016 28.4325 26.9737 28.3071C26.8855 27.9102 26.795 27.5138 26.7012 27.1181C26.6885 27.0645 26.6521 27.0163 26.6103 26.933C26.5831 27.4679 26.5577 27.965 26.5318 28.4736C26.3543 28.4736 26.1822 28.4736 25.9915 28.4736C25.9915 27.4984 25.9915 26.5236 25.9915 25.5329C26.2857 25.5329 26.5801 25.5329 26.8859 25.5329C26.9285 25.6553 26.9749 25.7885 27.0232 25.9434Z" fill="#1488DB"/>
<path d="M21.8083 27.2916C21.5393 27.2916 21.2959 27.2916 21.0337 27.2916C21.0337 27.6933 21.0337 28.0721 21.0337 28.47C20.8191 28.47 20.6234 28.47 20.4109 28.47C20.4109 27.4972 20.4109 26.5222 20.4109 25.534C20.6076 25.534 20.7973 25.534 21.0157 25.534C21.0157 25.881 21.0157 26.2318 21.0157 26.5982C21.38 26.5982 21.716 26.5982 22.0717 26.5982C22.0717 26.2469 22.0717 25.9029 22.0717 25.5399C22.2862 25.5399 22.4818 25.5399 22.6942 25.5399C22.6942 26.5136 22.6942 27.4885 22.6942 28.4765C22.4966 28.4765 22.307 28.4765 22.0886 28.4765C22.0886 28.0936 22.0886 27.7083 22.0886 27.3074C21.9856 27.301 21.9097 27.2963 21.8083 27.2916Z" fill="#1488DB"/>
<path d="M23.7626 27.1624C23.8219 27.4143 23.8511 27.6489 24.1134 27.772C24.4495 27.9297 24.8224 27.7773 24.9184 27.4164C24.9287 27.3776 24.9293 27.3364 24.9372 27.2739C25.1393 27.3166 25.3267 27.3417 25.5016 27.402C25.5536 27.42 25.6073 27.542 25.5979 27.6077C25.5373 28.0336 25.1143 28.4497 24.7216 28.4964C24.2498 28.5526 23.8097 28.5463 23.4886 28.1764C23.3101 27.9707 23.1631 27.697 23.1121 27.4331C23.0157 26.9344 23.0315 26.4186 23.3466 25.9804C23.6563 25.5495 24.1213 25.4007 24.6263 25.4736C25.0724 25.538 25.4321 25.7632 25.5803 26.2366C25.6387 26.4232 25.56 26.4976 25.4144 26.5442C25.2694 26.5905 25.1178 26.6167 24.9497 26.6564C24.9006 26.3704 24.7129 26.1906 24.4273 26.1618C24.1957 26.1385 23.9774 26.2527 23.8931 26.4704C23.8123 26.6793 23.8031 26.9153 23.7626 27.1624Z" fill="#1488DB"/>
<path d="M17.7518 28.4802C17.5716 28.4807 17.4162 28.4807 17.2495 28.4807C17.2495 27.487 17.2495 26.5187 17.2495 25.5341C17.6818 25.5341 18.1146 25.5333 18.5473 25.5354C18.5888 25.5356 18.6318 25.5667 18.6715 25.562C19.2203 25.4968 19.4966 26.0026 19.4496 26.6635C19.4205 27.0726 19.0645 27.4497 18.5566 27.44C18.3389 27.4358 18.121 27.4393 17.8687 27.4393C17.8687 27.7289 17.8747 28.0031 17.8645 28.2767C17.862 28.3453 17.8073 28.412 17.7518 28.4802ZM18.4852 26.7486C18.5771 26.6523 18.6689 26.5561 18.7608 26.4598C18.6611 26.3719 18.5734 26.2348 18.4589 26.2074C18.2799 26.1645 18.0828 26.196 17.8832 26.196C17.8832 26.3898 17.8832 26.5656 17.8832 26.7599C18.0785 26.7599 18.2598 26.7599 18.4852 26.7486Z" fill="#1488DB"/>
<path d="M15.6058 25.5145C16.0684 25.5145 16.5047 25.5145 16.9574 25.5145C16.9574 25.7424 16.9574 25.9531 16.9574 26.1827C16.6923 26.1827 16.4326 26.1827 16.1459 26.1827C16.1459 26.9489 16.1459 27.6975 16.1459 28.4645C15.9238 28.4645 15.7283 28.4645 15.5055 28.4645C15.5055 27.717 15.5055 26.9684 15.5055 26.2015C15.2196 26.2015 14.96 26.2015 14.6794 26.2015C14.6794 25.9727 14.6794 25.7618 14.6794 25.5145C14.9739 25.5145 15.2767 25.5145 15.6058 25.5145Z" fill="#1488DB"/>
<path d="M19.2881 27.979C19.2798 27.8419 19.2835 27.748 19.4453 27.7608C19.5917 27.7724 19.7398 27.7633 19.9033 27.7633C19.9033 28.0083 19.9033 28.2363 19.9033 28.4785C19.7083 28.4785 19.5188 28.4785 19.2881 28.4785C19.2881 28.324 19.2881 28.1639 19.2881 27.979Z" fill="#1488DB"/>
<path d="M71.4875 21.5199H64.1828L64.1438 17.4965H70.2766C71.3573 17.4965 72.2427 17.3597 72.9328 17.0863C73.6229 16.7998 74.1372 16.3897 74.4758 15.8558C74.8273 15.309 75.0031 14.6449 75.0031 13.8636C75.0031 12.9782 74.8339 12.2621 74.4953 11.7152C74.1698 11.1683 73.6555 10.7712 72.9523 10.5238C72.2622 10.2764 71.3703 10.1527 70.2766 10.1527H66.2141V34.0004H60.3547V5.56287H70.2766C71.9302 5.56287 73.4081 5.71912 74.7102 6.03162C76.0253 6.34412 77.1385 6.81938 78.05 7.4574C78.9615 8.09542 79.6581 8.90271 80.1398 9.87927C80.6216 10.8428 80.8625 11.9886 80.8625 13.3168C80.8625 14.4886 80.5956 15.5694 80.0617 16.559C79.5409 17.5485 78.7141 18.3558 77.5813 18.9808C76.4615 19.6058 74.9966 19.9509 73.1867 20.016L71.4875 21.5199ZM71.2336 34.0004H62.5813L64.8664 29.4301H71.2336C72.2622 29.4301 73.1021 29.2673 73.7531 28.9418C74.4042 28.6032 74.8859 28.1475 75.1984 27.5746C75.5109 27.0017 75.6672 26.3441 75.6672 25.6019C75.6672 24.7686 75.524 24.0459 75.2375 23.434C74.9641 22.822 74.5214 22.3532 73.9094 22.0277C73.2974 21.6892 72.4901 21.5199 71.4875 21.5199H65.843L65.882 17.4965H72.9133L74.2609 19.0785C75.9927 19.0524 77.3859 19.3584 78.4406 19.9965C79.5083 20.6215 80.2831 21.4353 80.7648 22.4379C81.2596 23.4405 81.507 24.5147 81.507 25.6605C81.507 27.4834 81.1099 29.0199 80.3156 30.2699C79.5214 31.5069 78.356 32.4379 76.8195 33.0629C75.2961 33.6879 73.4341 34.0004 71.2336 34.0004ZM92.1609 5.56287V34.0004H86.3016V5.56287H92.1609ZM109.192 5.56287L97.9227 19.6058L91.4188 26.598L90.3641 21.0511L94.7586 15.0355L102.005 5.56287H109.192ZM102.532 34.0004L94.1531 20.8558L98.4891 17.223L109.466 34.0004H102.532ZM123.205 23.8636H115.959V19.2933H123.205C124.325 19.2933 125.237 19.111 125.94 18.7465C126.643 18.3689 127.157 17.848 127.483 17.184C127.808 16.5199 127.971 15.7712 127.971 14.9379C127.971 14.0915 127.808 13.3038 127.483 12.5746C127.157 11.8454 126.643 11.2595 125.94 10.8168C125.237 10.3741 124.325 10.1527 123.205 10.1527H117.991V34.0004H112.131V5.56287H123.205C125.432 5.56287 127.34 5.96651 128.928 6.7738C130.53 7.56807 131.754 8.66833 132.6 10.0746C133.446 11.4808 133.87 13.0889 133.87 14.8988C133.87 16.7347 133.446 18.3233 132.6 19.6644C131.754 21.0056 130.53 22.0407 128.928 22.7699C127.34 23.4991 125.432 23.8636 123.205 23.8636ZM143.586 17.4769V34.0004H137.961V12.8676H143.254L143.586 17.4769ZM149.953 12.7308L149.855 17.9457C149.582 17.9066 149.25 17.8741 148.859 17.848C148.482 17.809 148.137 17.7894 147.824 17.7894C147.03 17.7894 146.34 17.8936 145.754 18.1019C145.181 18.2972 144.699 18.5902 144.309 18.9808C143.931 19.3715 143.645 19.8467 143.449 20.4066C143.267 20.9665 143.163 21.6045 143.137 22.3207L142.004 21.9691C142.004 20.6019 142.141 19.3454 142.414 18.1996C142.688 17.0407 143.085 16.0316 143.605 15.1722C144.139 14.3129 144.79 13.6488 145.559 13.1801C146.327 12.7113 147.206 12.4769 148.195 12.4769C148.508 12.4769 148.827 12.503 149.152 12.5551C149.478 12.5941 149.745 12.6527 149.953 12.7308ZM158.947 12.8676V34.0004H153.302V12.8676H158.947ZM152.951 7.35974C152.951 6.53943 153.237 5.86235 153.81 5.32849C154.383 4.79464 155.151 4.52771 156.115 4.52771C157.065 4.52771 157.827 4.79464 158.4 5.32849C158.986 5.86235 159.279 6.53943 159.279 7.35974C159.279 8.18005 158.986 8.85714 158.4 9.39099C157.827 9.92485 157.065 10.1918 156.115 10.1918C155.151 10.1918 154.383 9.92485 153.81 9.39099C153.237 8.85714 152.951 8.18005 152.951 7.35974ZM169.503 17.3793V34.0004H163.878V12.8676H169.152L169.503 17.3793ZM168.683 22.6918H167.159C167.159 21.1293 167.361 19.723 167.765 18.473C168.168 17.21 168.735 16.1358 169.464 15.2504C170.193 14.3519 171.059 13.6683 172.062 13.1996C173.077 12.7178 174.21 12.4769 175.46 12.4769C176.45 12.4769 177.355 12.6202 178.175 12.9066C178.995 13.1931 179.698 13.6488 180.284 14.2738C180.883 14.8988 181.339 15.7256 181.652 16.7543C181.977 17.7829 182.14 19.0394 182.14 20.5238V34.0004H176.476V20.5043C176.476 19.5668 176.346 18.8376 176.085 18.3168C175.825 17.7959 175.441 17.4314 174.933 17.223C174.438 17.0017 173.826 16.891 173.097 16.891C172.342 16.891 171.684 17.0407 171.124 17.3402C170.577 17.6397 170.122 18.0564 169.757 18.5902C169.405 19.111 169.139 19.723 168.956 20.4261C168.774 21.1293 168.683 21.8845 168.683 22.6918ZM197.169 12.8676V16.8519H184.864V12.8676H197.169ZM187.911 7.65271H193.536V27.6332C193.536 28.2452 193.614 28.7139 193.77 29.0394C193.94 29.3649 194.187 29.5928 194.513 29.723C194.838 29.8402 195.248 29.8988 195.743 29.8988C196.095 29.8988 196.407 29.8858 196.68 29.8597C196.967 29.8207 197.208 29.7816 197.403 29.7426L197.423 33.8832C196.941 34.0394 196.42 34.1631 195.86 34.2543C195.3 34.3454 194.682 34.391 194.005 34.391C192.768 34.391 191.687 34.1892 190.763 33.7855C189.851 33.3689 189.148 32.7048 188.653 31.7933C188.158 30.8819 187.911 29.684 187.911 28.1996V7.65271Z" fill="#032B91"/>
</svg>
