<svg width="41" height="49" viewBox="0 0 41 49" fill="none" xmlns="http://www.w3.org/2000/svg">
<path d="M37.9723 5.53198H36.5433V40.638C36.5433 42.9702 34.6449 44.8685 32.3127 44.8685H17.8344H6.32129V46.1699C6.32129 47.6601 7.53078 48.8696 9.02096 48.8696H23.4941H37.9672C39.4573 48.8696 40.6668 47.6601 40.6668 46.1699V8.23165C40.6668 6.74148 39.4624 5.53198 37.9723 5.53198Z" fill="#032B91"/>
<path d="M17.8344 43.3376H32.3075C33.7977 43.3376 35.0072 42.1282 35.0072 40.638V5.53203V2.69967C35.0072 1.20949 33.7977 0 32.3075 0H17.8344H13.022V0.893086C13.0321 0.984946 13.0373 1.08191 13.0373 1.17887V7.06304V8.57363C13.0373 10.6711 11.3327 12.3756 9.23527 12.3756H7.72468H1.84052C1.76397 12.3756 1.68231 12.3705 1.60576 12.3654H0.666748V40.638C0.666748 42.1282 1.87624 43.3376 3.36642 43.3376H6.32636H17.8344ZM18.3805 34.1618H8.94438C8.24012 34.1618 7.66854 33.5902 7.66854 32.886C7.66854 32.1817 8.24012 31.6101 8.94438 31.6101H18.3856C19.0898 31.6101 19.6614 32.1817 19.6614 32.886C19.6614 33.5902 19.0847 34.1618 18.3805 34.1618ZM27.8217 27.65H8.94438C8.24012 27.65 7.66854 27.0784 7.66854 26.3742C7.66854 25.6698 8.24012 25.0983 8.94438 25.0983H27.8217C28.5259 25.0983 29.0975 25.6698 29.0975 26.3742C29.0975 27.0784 28.5259 27.65 27.8217 27.65ZM8.94438 18.1832H27.8217C28.5259 18.1832 29.0975 18.7548 29.0975 19.4591C29.0975 20.1633 28.5259 20.7349 27.8217 20.7349H8.94438C8.24012 20.7349 7.66854 20.1633 7.66854 19.4591C7.66854 18.7548 8.24012 18.1832 8.94438 18.1832Z" fill="#032B91"/>
<path d="M1.84051 10.8446H9.23526C9.24037 10.8446 9.25057 10.8446 9.25568 10.8446C10.4907 10.8344 11.4909 9.8341 11.5012 8.59909C11.5012 8.59399 11.5012 8.58378 11.5012 8.57868V1.17882C11.5012 0.49497 10.9398 0.0407715 10.3581 0.0407715C10.0774 0.0407715 9.79668 0.142838 9.56193 0.377593L1.03418 8.90529C0.319713 9.61976 0.824944 10.8446 1.84051 10.8446Z" fill="#032B91"/>
</svg>
