<svg width="121" height="120" viewBox="0 0 121 120" fill="none" xmlns="http://www.w3.org/2000/svg">
<path opacity="0.2" d="M60.5 105C85.3528 105 105.5 84.8528 105.5 60C105.5 35.1472 85.3528 15 60.5 15C35.6472 15 15.5 35.1472 15.5 60C15.5 84.8528 35.6472 105 60.5 105Z" fill="#525A92"/>
<path d="M60.5 105C85.3528 105 105.5 84.8528 105.5 60C105.5 35.1472 85.3528 15 60.5 15C35.6472 15 15.5 35.1472 15.5 60C15.5 84.8528 35.6472 105 60.5 105Z" stroke="#525A92" stroke-width="1.5" stroke-linecap="round" stroke-linejoin="round"/>
<path d="M56.75 56.25H60.5V82.5H64.25" stroke="#1D2026" stroke-width="1.5" stroke-linecap="round" stroke-linejoin="round"/>
<path d="M60.5 45C63.6066 45 66.125 42.4816 66.125 39.375C66.125 36.2684 63.6066 33.75 60.5 33.75C57.3934 33.75 54.875 36.2684 54.875 39.375C54.875 42.4816 57.3934 45 60.5 45Z" fill="#1D2026"/>
</svg>
