<svg width="40" height="40" viewBox="0 0 40 40" fill="none" xmlns="http://www.w3.org/2000/svg">
<g clip-path="url(#clip0_58830_5508)">
<path d="M36.37 0.0250244C36.3285 0.0216675 36.2934 0 36.2501 0H18.3335C15.5768 0 13.3335 2.24335 13.3335 5V6.66656C13.3335 7.58667 14.08 8.33344 15.0001 8.33344C15.9202 8.33344 16.6666 7.58667 16.6666 6.66656V5C16.6666 4.08173 17.4149 3.33344 18.3335 3.33344H26.0984L25.59 3.50342C24.2402 3.97003 23.3335 5.2417 23.3335 6.66656V31.6666H18.3335C17.4149 31.6666 16.6666 30.9183 16.6666 30V26.6666C16.6666 25.7468 15.9202 25 15.0001 25C14.08 25 13.3335 25.7468 13.3335 26.6666V30C13.3335 32.7567 15.5768 35 18.3335 35H23.3335V36.6666C23.3335 38.5049 24.8282 40 26.6666 40C27.0234 40 27.3618 39.9484 27.7283 39.8349L37.7418 36.4966C39.0934 36.03 40.0001 34.7583 40.0001 33.3334V3.33344C40.0001 1.39008 38.325 -0.133362 36.37 0.0250244Z" fill="current"/>
<path d="M17.8448 15.4883L11.1783 8.8217C10.7016 8.34502 9.98505 8.20159 9.36157 8.46007C8.73993 8.71825 8.33344 9.32677 8.33344 9.99999V15H1.66656C0.746765 15 0 15.7468 0 16.6666C0 17.5867 0.746765 18.3334 1.66656 18.3334H8.33344V23.3334C8.33344 24.0066 8.73993 24.6149 9.36157 24.8733C9.98505 25.1315 10.7016 24.9884 11.1783 24.5117L17.8448 17.8448C18.4967 17.1933 18.4967 16.1401 17.8448 15.4883Z" fill="current"/>
</g>
<defs>
<clipPath id="clip0_58830_5508">
<rect width="40" height="40" fill="white"/>
</clipPath>
</defs>
</svg>
