<svg width="41" height="40" viewBox="0 0 41 40" fill="none" xmlns="http://www.w3.org/2000/svg">
<g clip-path="url(#clip0_58815_3525)">
<path d="M39.1616 7.10864H35.299C27.0741 7.10864 21.2968 5.56029 13.659 2.50466C13.3008 2.36279 12.8912 2.40622 12.5672 2.62255C12.2457 2.84114 12.0522 3.20396 12.0522 3.59302V19.9993C12.0522 20.4788 12.344 20.909 12.7893 21.0876C20.704 24.2531 26.7743 25.8586 35.299 25.8586H39.1616C39.8094 25.8586 40.3335 25.3345 40.3335 24.6868V8.28052C40.3335 7.63278 39.8094 7.10864 39.1616 7.10864Z" fill="#032B91"/>
<path d="M1.50537 37.5774H27.3647C28.0125 37.5774 28.5366 37.0532 28.5366 36.4055V34.0618H7.36475C5.42615 34.0618 3.84912 32.4847 3.84912 30.5461V18.8274H1.50537C0.857637 18.8274 0.333496 19.3515 0.333496 19.9993V36.4055C0.333496 37.0532 0.857637 37.5774 1.50537 37.5774Z" fill="#032B91"/>
<path d="M9.7085 19.9993V12.968H7.36475C6.71701 12.968 6.19287 13.4922 6.19287 14.1399V30.5461C6.19287 31.1939 6.71701 31.718 7.36475 31.718H33.2241C33.8719 31.718 34.396 31.1939 34.396 30.5461V28.1795C25.7295 28.0609 19.4726 26.2854 11.9183 23.2643C10.5748 22.7253 9.7085 21.4436 9.7085 19.9993Z" fill="#032B91"/>
</g>
<defs>
<clipPath id="clip0_58815_3525">
<rect width="40" height="40" fill="white" transform="translate(0.333496)"/>
</clipPath>
</defs>
</svg>
