<svg width="24" height="24" viewBox="0 0 24 24" fill="none" xmlns="http://www.w3.org/2000/svg">
<g clip-path="url(#clip0_58811_3358)">
<path d="M15.4667 18.7422H8.53332C8.09153 18.7422 7.73331 19.1004 7.73331 19.5422C7.73331 19.984 8.09148 20.3422 8.53332 20.3422H15.4667C15.9084 20.3422 16.2667 19.984 16.2667 19.5422C16.2667 19.1004 15.9085 18.7422 15.4667 18.7422Z" fill="current"/>
<path d="M15.4667 16.219H8.53332C8.09153 16.219 7.73331 16.5772 7.73331 17.019C7.73331 17.4609 8.09148 17.819 8.53332 17.819H15.4667C15.9084 17.819 16.2667 17.4609 16.2667 17.019C16.2667 16.5772 15.9085 16.219 15.4667 16.219Z" fill="current"/>
<path d="M22.1333 6.27677H19.5879V1.6467C19.5879 1.2049 19.2297 0.84668 18.7879 0.84668H5.21212C4.77033 0.84668 4.41211 1.20485 4.41211 1.6467V6.27677H1.86666C0.837375 6.27677 0 7.11419 0 8.14348V16.192C0 17.2213 0.837375 18.0587 1.86666 18.0587H4.41225V22.3531C4.41225 22.7949 4.77042 23.1531 5.21227 23.1531H18.7877C19.2295 23.1531 19.5877 22.7949 19.5877 22.3531V18.0587H22.1333C23.1626 18.0587 24 17.2213 24 16.192V8.14348C24 7.11424 23.1626 6.27677 22.1333 6.27677ZM6.01209 2.44671H17.9879V6.27677H6.01209V2.44671ZM17.9877 21.5531H6.01228C6.01228 21.3967 6.01228 15.2014 6.01228 15.008H17.9878C17.9877 15.2062 17.9877 21.4027 17.9877 21.5531ZM18.7879 10.9744H16.7515C16.3097 10.9744 15.9515 10.6162 15.9515 10.1743C15.9515 9.73249 16.3096 9.37432 16.7515 9.37432H18.7879C19.2297 9.37432 19.5879 9.73249 19.5879 10.1743C19.5879 10.6162 19.2297 10.9744 18.7879 10.9744Z" fill="current"/>
</g>
<defs>
<clipPath id="clip0_58811_3358">
<rect width="24" height="24" fill="current"/>
</clipPath>
</defs>
</svg>
