<svg width="24" height="30" viewBox="0 0 24 30" fill="none" xmlns="http://www.w3.org/2000/svg">
<path d="M22.3833 3.31909H21.526V24.3827C21.526 25.782 20.3869 26.921 18.9876 26.921H10.3006H3.39273V27.7018C3.39273 28.596 4.11843 29.3216 5.01253 29.3216H13.6964H22.3803C23.2744 29.3216 24 28.596 24 27.7018V4.93889C24.0001 4.04479 23.2774 3.31909 22.3833 3.31909Z" fill="current"/>
<path d="M10.3006 26.0026H18.9845C19.8786 26.0026 20.6043 25.2769 20.6043 24.3828V3.31922V1.6198C20.6043 0.725696 19.8786 0 18.9845 0H10.3006H7.41313V0.535852C7.41922 0.590968 7.42231 0.649146 7.42231 0.707324V4.23782V5.14418C7.42231 6.40266 6.3996 7.42537 5.14111 7.42537H4.23476H0.704262C0.658332 7.42537 0.60934 7.42231 0.56341 7.41925H0V24.3828C0 25.2769 0.725696 26.0026 1.6198 26.0026H3.39577H10.3006ZM10.6282 20.4971H4.96658C4.54402 20.4971 4.20108 20.1541 4.20108 19.7316C4.20108 19.309 4.54402 18.9661 4.96658 18.9661H10.6313C11.0539 18.9661 11.3968 19.309 11.3968 19.7316C11.3968 20.1541 11.0508 20.4971 10.6282 20.4971ZM16.293 16.59H4.96658C4.54402 16.59 4.20108 16.247 4.20108 15.8245C4.20108 15.4019 4.54402 15.059 4.96658 15.059H16.293C16.7155 15.059 17.0585 15.4019 17.0585 15.8245C17.0585 16.247 16.7155 16.59 16.293 16.59ZM4.96658 10.9099H16.293C16.7155 10.9099 17.0585 11.2529 17.0585 11.6754C17.0585 12.098 16.7155 12.4409 16.293 12.4409H4.96658C4.54402 12.4409 4.20108 12.098 4.20108 11.6754C4.20108 11.2529 4.54402 10.9099 4.96658 10.9099Z" fill="current"/>
<path d="M0.704258 6.50669H5.14111C5.14417 6.50669 5.1503 6.50669 5.15336 6.50669C5.89436 6.50056 6.49452 5.90041 6.50064 5.1594C6.50064 5.15634 6.50064 5.15022 6.50064 5.14716V0.707242C6.50064 0.296933 6.16382 0.0244141 5.81478 0.0244141C5.64637 0.0244141 5.47796 0.0856543 5.33711 0.226507L0.22046 5.34312C-0.208221 5.77181 0.0949178 6.50669 0.704258 6.50669Z" fill="current"/>
</svg>
