<svg width="121" height="120" viewBox="0 0 121 120" fill="none" xmlns="http://www.w3.org/2000/svg">
<path opacity="0.2" d="M54.0091 18.7428L12.7702 89.9892C12.1103 91.1292 11.7623 92.423 11.7612 93.7402C11.7601 95.0574 12.106 96.3517 12.764 97.4928C13.422 98.6339 14.3689 99.5816 15.5095 100.241C16.65 100.899 17.944 101.246 19.2613 101.246H101.739C103.056 101.246 104.35 100.9 105.491 100.241C106.631 99.5816 107.578 98.634 108.236 97.4928C108.894 96.3517 109.24 95.0574 109.239 93.7402C109.238 92.423 108.89 91.1292 108.23 89.9892L66.9912 18.7428C66.3323 17.6046 65.3858 16.6597 64.2465 16.0027C63.1072 15.3458 61.8152 15 60.5001 15C59.185 15 57.893 15.3458 56.7537 16.0027C55.6144 16.6597 54.6679 17.6046 54.0091 18.7428Z" fill="#F8B545"/>
<path d="M60.5 52.5V67.5" stroke="#F8B545" stroke-width="1.5" stroke-linecap="round" stroke-linejoin="round"/>
<path d="M54.0091 18.7428L12.7702 89.9892C12.1103 91.1292 11.7623 92.423 11.7612 93.7402C11.7601 95.0574 12.106 96.3517 12.764 97.4928C13.422 98.6339 14.3689 99.5816 15.5095 100.241C16.65 100.899 17.944 101.246 19.2613 101.246H101.739C103.056 101.246 104.35 100.9 105.491 100.241C106.631 99.5817 107.578 98.634 108.236 97.4928C108.894 96.3517 109.24 95.0574 109.239 93.7402C109.238 92.423 108.89 91.1292 108.23 89.9892L66.9912 18.7428C66.3323 17.6046 65.3858 16.6597 64.2465 16.0027C63.1072 15.3458 61.8152 15 60.5001 15C59.185 15 57.893 15.3458 56.7537 16.0027C55.6144 16.6597 54.6679 17.6046 54.0091 18.7428V18.7428Z" stroke="#F8B545" stroke-width="1.5" stroke-linecap="round" stroke-linejoin="round"/>
<path d="M60.5 90C63.6066 90 66.125 87.4816 66.125 84.375C66.125 81.2684 63.6066 78.75 60.5 78.75C57.3934 78.75 54.875 81.2684 54.875 84.375C54.875 87.4816 57.3934 90 60.5 90Z" fill="#F8B545"/>
</svg>
